# xmcd
# Track frame offsets:
# 150
# 9608
# 19736
# 36250
# 49257
# 68975
# 90126
# 107767
# 121203
# 133793
# 150416
# 169955
# 184842
#
# Disc length: 2710 seconds
# Revision: 0
# Processed by: cddbd v1.5.2PL0 Copyright (c) Steve Scherf et al.
# Submitted via: VisiTrax 2.9.5.180 - For more info visit www.synapsa.com
#
DISCID=a50a940d
DTITLE=Old Cowboy Songs - Due West Trio
DYEAR=1999
DGENRE=Country
TTITLE0=Skyball Paint
TTITLE1=Wild Rippling Waters
TTITLE2=Coyotes
TTITLE3=Ridin' Down The Canyon
TTITLE4=Streets Of Lorado
TTITLE5=Restless Rovin' Cowboy
TTITLE6=Riders In The Sky
TTITLE7=Blue Shadows On The Trail
TTITLE8=Prairie Lullaby
TTITLE9=Houston McKay
TTITLE10=Shenandoah
TTITLE11=Spanish Is A loving Tongue
TTITLE12=Old Cowboy Songs
EXTD=
EXTT0=
EXTT1=
EXTT2=
EXTT3=
EXTT4=
EXTT5=
EXTT6=
EXTT7=
EXTT8=
EXTT9=
EXTT10=
EXTT11=
EXTT12=
PLAYORDER=
